<svg xmlns="http://www.w3.org/2000/svg" viewBox="0 0 600 600" width="600" height="600">
  <defs>
    <linearGradient id="p2Tub" x1="0%" y1="0%" x2="100%" y2="0%">
      <stop offset="0%" stop-color="#18181b" />
      <stop offset="25%" stop-color="#27272a" />
      <stop offset="75%" stop-color="#3f3f46" />
      <stop offset="100%" stop-color="#18181b" />
    </linearGradient>
    <linearGradient id="p2Lid" x1="0%" y1="0%" x2="100%" y2="0%">
      <stop offset="0%" stop-color="#09090b" />
      <stop offset="50%" stop-color="#27272a" />
      <stop offset="100%" stop-color="#09090b" />
    </linearGradient>
    <linearGradient id="amberStripe" x1="0%" y1="0%" x2="100%" y2="100%">
      <stop offset="0%" stop-color="#f59e0b" />
      <stop offset="50%" stop-color="#ea580c" />
      <stop offset="100%" stop-color="#e11d48" />
    </linearGradient>
    <radialGradient id="amberHalo" cx="50%" cy="50%" r="50%">
      <stop offset="0%" stop-color="#f59e0b" stop-opacity="0.3"/>
      <stop offset="100%" stop-color="#f59e0b" stop-opacity="0"/>
    </radialGradient>
    <filter id="tubShadow2" x="-20%" y="-20%" width="140%" height="140%">
      <feDropShadow dx="0" dy="25" stdDeviation="25" flood-color="#000000" flood-opacity="0.8"/>
    </filter>
  </defs>

  <!-- Ambient Glow -->
  <circle cx="300" cy="320" r="240" fill="url(#amberHalo)"/>

  <!-- Shadow below container -->
  <ellipse cx="300" cy="530" rx="190" ry="24" fill="#000000" fill-opacity="0.75" filter="blur(10px)"/>

  <g filter="url(#tubShadow2)">
    <!-- Lid -->
    <rect x="200" y="100" width="200" height="50" rx="8" fill="url(#p2Lid)" stroke="#52525b" stroke-width="1.5"/>
    <line x1="220" y1="100" x2="220" y2="150" stroke="#71717a" stroke-width="2"/>
    <line x1="250" y1="100" x2="250" y2="150" stroke="#71717a" stroke-width="2"/>
    <line x1="280" y1="100" x2="280" y2="150" stroke="#71717a" stroke-width="2"/>
    <line x1="320" y1="100" x2="320" y2="150" stroke="#71717a" stroke-width="2"/>
    <line x1="350" y1="100" x2="350" y2="150" stroke="#71717a" stroke-width="2"/>
    <line x1="380" y1="100" x2="380" y2="150" stroke="#71717a" stroke-width="2"/>

    <!-- Neck -->
    <path d="M 185 150 L 415 150 L 440 190 L 160 190 Z" fill="url(#p2Lid)"/>

    <!-- Tub Body -->
    <rect x="145" y="190" width="310" height="330" rx="24" fill="url(#p2Tub)" stroke="#52525b" stroke-width="2"/>

    <!-- Specular highlight -->
    <rect x="225" y="190" width="30" height="330" fill="#ffffff" fill-opacity="0.07"/>

    <!-- Label Banner Background -->
    <rect x="155" y="225" width="290" height="260" rx="14" fill="#09090b" stroke="#27272a" stroke-width="1.5"/>

    <!-- Amber stripe -->
    <path d="M 155 240 L 445 275 L 445 295 L 155 260 Z" fill="url(#amberStripe)"/>

    <!-- RDS Logo -->
    <text x="300" y="270" fill="#ffffff" font-family="system-ui, -apple-system, sans-serif" font-weight="900" font-size="34" text-anchor="middle" letter-spacing="4">RDS</text>
    <text x="300" y="295" fill="#f59e0b" font-family="system-ui, -apple-system, sans-serif" font-weight="700" font-size="14" text-anchor="middle" letter-spacing="2">NUTRITION</text>

    <!-- Product Title -->
    <text x="300" y="340" fill="#f8fafc" font-family="system-ui, -apple-system, sans-serif" font-weight="800" font-size="20" text-anchor="middle">MASS GAINER / YEAST</text>
    <text x="300" y="365" fill="#ea580c" font-family="system-ui, -apple-system, sans-serif" font-weight="700" font-size="14" text-anchor="middle" letter-spacing="1">ANABOLIC CALORIE MATRIX</text>

    <!-- Key Metrics Grid -->
    <rect x="175" y="385" width="75" height="42" rx="8" fill="#27272a"/>
    <text x="212" y="405" fill="#ffffff" font-family="sans-serif" font-weight="bold" font-size="13" text-anchor="middle">380</text>
    <text x="212" y="419" fill="#a1a1aa" font-family="sans-serif" font-size="9" text-anchor="middle">KCAL</text>

    <rect x="262" y="385" width="75" height="42" rx="8" fill="#27272a"/>
    <text x="300" y="405" fill="#ffffff" font-family="sans-serif" font-weight="bold" font-size="13" text-anchor="middle">72G</text>
    <text x="300" y="419" fill="#a1a1aa" font-family="sans-serif" font-size="9" text-anchor="middle">CARBS</text>

    <rect x="350" y="385" width="75" height="42" rx="8" fill="#27272a"/>
    <text x="387" y="405" fill="#ffffff" font-family="sans-serif" font-weight="bold" font-size="13" text-anchor="middle">22G</text>
    <text x="387" y="419" fill="#a1a1aa" font-family="sans-serif" font-size="9" text-anchor="middle">PROTEIN</text>

    <text x="300" y="462" fill="#d4d4d8" font-family="system-ui, -apple-system, sans-serif" font-weight="600" font-size="12" text-anchor="middle">CLEAN CALORIES • MAXIMUM BULK</text>
  </g>
</svg>